<svg width="1677" height="536" viewBox="0 0 1677 536" fill="none" xmlns="http://www.w3.org/2000/svg">
<path d="M35.6062 409.505C48.0262 409.505 57.6402 412.081 64.4482 417.233C71.3482 422.385 74.7982 430.067 74.7982 440.279C74.7982 450.951 71.3942 459.001 64.5862 464.429C57.7782 469.765 48.6702 472.433 37.2622 472.433H26.3602V505.001H6.07422V409.505H35.6062ZM35.6062 457.529C41.4942 457.529 46.0022 456.195 49.1302 453.527C52.2582 450.859 53.8222 446.443 53.8222 440.279C53.8222 429.515 47.6582 424.133 35.3302 424.133H26.3602V457.529H35.6062Z" fill="#7788B4"/>
<path d="M117.089 429.653C128.037 429.653 136.593 433.103 142.757 440.003C148.921 446.811 152.003 456.287 152.003 468.431C152.003 476.159 150.577 482.967 147.725 488.855C144.965 494.651 140.917 499.159 135.581 502.379C130.337 505.599 124.127 507.209 116.951 507.209C106.003 507.209 97.4008 503.805 91.1448 496.997C84.9808 490.097 81.8988 480.575 81.8988 468.431C81.8988 460.703 83.2787 453.941 86.0387 448.145C88.8907 442.257 92.9388 437.703 98.1828 434.483C103.519 431.263 109.821 429.653 117.089 429.653ZM117.089 444.281C112.121 444.281 108.395 446.259 105.911 450.215C103.519 454.079 102.323 460.151 102.323 468.431C102.323 476.711 103.519 482.829 105.911 486.785C108.395 490.649 112.075 492.581 116.951 492.581C121.827 492.581 125.461 490.649 127.853 486.785C130.337 482.829 131.579 476.711 131.579 468.431C131.579 460.151 130.383 454.079 127.991 450.215C125.599 446.259 121.965 444.281 117.089 444.281Z" fill="#7788B4"/>
<path d="M261.159 431.861L245.565 505.001H221.691L211.203 449.387L200.715 505.001H177.117L161.109 431.861H180.843L189.813 490.511L201.957 431.861H221.553L232.455 490.511L242.391 431.861H261.159Z" fill="#7788B4"/>
<path d="M336.536 466.775C336.536 467.695 336.398 470.225 336.122 474.365H290.444C291.088 480.989 292.882 485.681 295.826 488.441C298.77 491.201 302.772 492.581 307.832 492.581C310.96 492.581 313.904 492.075 316.664 491.063C319.424 490.051 322.414 488.441 325.634 486.233L333.776 497.273C325.588 503.897 316.342 507.209 306.038 507.209C294.538 507.209 285.706 503.759 279.542 496.859C273.378 489.959 270.296 480.621 270.296 468.845C270.296 461.393 271.584 454.723 274.16 448.835C276.828 442.855 280.646 438.163 285.614 434.759C290.674 431.355 296.654 429.653 303.554 429.653C313.95 429.653 322.046 432.919 327.842 439.451C333.638 445.983 336.536 455.091 336.536 466.775ZM317.078 461.255C317.078 449.111 312.708 443.039 303.968 443.039C299.92 443.039 296.746 444.557 294.446 447.593C292.238 450.537 290.904 455.367 290.444 462.083H317.078V461.255Z" fill="#7788B4"/>
<path d="M391.292 429.791C393.5 429.791 395.938 430.159 398.606 430.895L395.294 449.801C392.718 449.157 390.556 448.835 388.808 448.835C384.484 448.835 381.126 450.353 378.734 453.389C376.342 456.425 374.456 461.025 373.076 467.189V505.001H353.48V431.861H370.454L372.248 446.075C373.996 440.923 376.526 436.921 379.838 434.069C383.242 431.217 387.06 429.791 391.292 429.791Z" fill="#7788B4"/>
<path d="M468.735 466.775C468.735 467.695 468.597 470.225 468.321 474.365H422.643C423.287 480.989 425.081 485.681 428.025 488.441C430.969 491.201 434.971 492.581 440.031 492.581C443.159 492.581 446.103 492.075 448.863 491.063C451.623 490.051 454.613 488.441 457.833 486.233L465.975 497.273C457.787 503.897 448.541 507.209 438.237 507.209C426.737 507.209 417.905 503.759 411.741 496.859C405.577 489.959 402.495 480.621 402.495 468.845C402.495 461.393 403.783 454.723 406.359 448.835C409.027 442.855 412.845 438.163 417.813 434.759C422.873 431.355 428.853 429.653 435.753 429.653C446.149 429.653 454.245 432.919 460.041 439.451C465.837 445.983 468.735 455.091 468.735 466.775ZM449.277 461.255C449.277 449.111 444.907 443.039 436.167 443.039C432.119 443.039 428.945 444.557 426.645 447.593C424.437 450.537 423.103 455.367 422.643 462.083H449.277V461.255Z" fill="#7788B4"/>
<path d="M549.021 402.743V505.001H531.771L530.667 496.031C525.515 503.483 518.523 507.209 509.691 507.209C500.675 507.209 493.775 503.759 488.991 496.859C484.299 489.867 481.953 480.391 481.953 468.431C481.953 460.887 483.149 454.217 485.541 448.421C488.025 442.533 491.521 437.933 496.029 434.621C500.537 431.309 505.735 429.653 511.623 429.653C518.431 429.653 524.365 432.091 529.425 436.967V400.535L549.021 402.743ZM515.487 492.581C518.339 492.581 520.869 491.891 523.077 490.511C525.285 489.039 527.401 486.785 529.425 483.749V451.043C527.493 448.743 525.515 447.041 523.491 445.937C521.559 444.741 519.305 444.143 516.729 444.143C512.221 444.143 508.679 446.121 506.103 450.077C503.619 454.033 502.377 460.151 502.377 468.431C502.377 477.171 503.481 483.381 505.689 487.061C507.989 490.741 511.255 492.581 515.487 492.581Z" fill="#7788B4"/>
<path d="M647.108 429.653C655.664 429.653 662.288 433.057 666.98 439.865C671.764 446.673 674.156 456.195 674.156 468.431C674.156 475.975 672.96 482.691 670.568 488.579C668.268 494.375 664.91 498.929 660.494 502.241C656.17 505.553 651.064 507.209 645.176 507.209C637.172 507.209 630.778 504.081 625.994 497.825L624.89 505.001H607.502V402.743L627.098 400.535V439.727C629.398 436.599 632.296 434.161 635.792 432.413C639.288 430.573 643.06 429.653 647.108 429.653ZM639.656 492.719C649.04 492.719 653.732 484.623 653.732 468.431C653.732 459.507 652.582 453.251 650.282 449.663C648.074 445.983 644.854 444.143 640.622 444.143C635.378 444.143 630.87 447.271 627.098 453.527V484.853C630.318 490.097 634.504 492.719 639.656 492.719Z" fill="#7788B4"/>
<path d="M729.2 505.139C726.256 514.431 721.61 521.607 715.262 526.667C709.006 531.727 700.496 534.625 689.732 535.361L687.662 521.285C694.654 520.365 699.76 518.709 702.98 516.317C706.292 513.925 709.006 510.153 711.122 505.001H704.36L681.59 431.861H702.428L717.056 492.305L732.512 431.861H752.798L729.2 505.139Z" fill="#7788B4"/>
<path d="M822.054 409.505V505.001H801.768V409.505H822.054ZM876.288 409.505L844.41 452.561L878.772 505.001H855.036L822.882 454.079L854.622 409.505H876.288Z" fill="#7788B4"/>
<path d="M948.235 505.001H931.261L930.295 495.203C927.719 499.251 924.591 502.287 920.911 504.311C917.231 506.243 912.953 507.209 908.077 507.209C901.453 507.209 896.393 505.231 892.897 501.275C889.401 497.227 887.653 491.615 887.653 484.439V431.861H907.249V481.955C907.249 485.819 907.893 488.579 909.181 490.235C910.469 491.799 912.493 492.581 915.253 492.581C920.497 492.581 924.959 489.407 928.639 483.059V431.861H948.235V505.001Z" fill="#7788B4"/>
<path d="M1009.95 429.653C1018.51 429.653 1025.13 433.057 1029.82 439.865C1034.61 446.673 1037 456.195 1037 468.431C1037 475.975 1035.8 482.691 1033.41 488.579C1031.11 494.375 1027.75 498.929 1023.34 502.241C1019.01 505.553 1013.91 507.209 1008.02 507.209C1000.01 507.209 993.621 504.081 988.837 497.825L987.733 505.001H970.345V402.743L989.941 400.535V439.727C992.241 436.599 995.139 434.161 998.635 432.413C1002.13 430.573 1005.9 429.653 1009.95 429.653ZM1002.5 492.719C1011.88 492.719 1016.57 484.623 1016.57 468.431C1016.57 459.507 1015.42 453.251 1013.12 449.663C1010.92 445.983 1007.7 444.143 1003.46 444.143C998.221 444.143 993.713 447.271 989.941 453.527V484.853C993.161 490.097 997.347 492.719 1002.5 492.719Z" fill="#7788B4"/>
<path d="M1117.14 466.775C1117.14 467.695 1117 470.225 1116.72 474.365H1071.04C1071.69 480.989 1073.48 485.681 1076.43 488.441C1079.37 491.201 1083.37 492.581 1088.43 492.581C1091.56 492.581 1094.5 492.075 1097.26 491.063C1100.02 490.051 1103.01 488.441 1106.23 486.233L1114.38 497.273C1106.19 503.897 1096.94 507.209 1086.64 507.209C1075.14 507.209 1066.31 503.759 1060.14 496.859C1053.98 489.959 1050.9 480.621 1050.9 468.845C1050.9 461.393 1052.18 454.723 1054.76 448.835C1057.43 442.855 1061.25 438.163 1066.21 434.759C1071.27 431.355 1077.25 429.653 1084.15 429.653C1094.55 429.653 1102.65 432.919 1108.44 439.451C1114.24 445.983 1117.14 455.091 1117.14 466.775ZM1097.68 461.255C1097.68 449.111 1093.31 443.039 1084.57 443.039C1080.52 443.039 1077.35 444.557 1075.05 447.593C1072.84 450.537 1071.5 455.367 1071.04 462.083H1097.68V461.255Z" fill="#7788B4"/>
<path d="M1158.37 429.653C1168.67 429.653 1177.5 432.597 1184.86 438.485L1177.41 449.663C1171.25 445.799 1165.18 443.867 1159.2 443.867C1155.98 443.867 1153.49 444.465 1151.74 445.661C1150 446.857 1149.12 448.467 1149.12 450.491C1149.12 451.963 1149.49 453.205 1150.23 454.217C1151.05 455.229 1152.53 456.195 1154.64 457.115C1156.85 458.035 1160.12 459.139 1164.44 460.427C1172.17 462.543 1177.92 465.395 1181.69 468.983C1185.46 472.479 1187.35 477.309 1187.35 483.473C1187.35 488.349 1185.92 492.581 1183.07 496.169C1180.31 499.757 1176.54 502.517 1171.75 504.449C1166.97 506.289 1161.63 507.209 1155.75 507.209C1149.58 507.209 1143.97 506.289 1138.91 504.449C1133.85 502.517 1129.53 499.895 1125.94 496.583L1135.6 485.819C1141.76 490.603 1148.29 492.995 1155.19 492.995C1158.87 492.995 1161.77 492.305 1163.89 490.925C1166.1 489.453 1167.2 487.475 1167.2 484.991C1167.2 483.059 1166.79 481.541 1165.96 480.437C1165.13 479.333 1163.61 478.321 1161.4 477.401C1159.2 476.389 1155.75 475.239 1151.05 473.951C1143.69 471.927 1138.22 469.075 1134.63 465.395C1131.14 461.623 1129.39 456.977 1129.39 451.457C1129.39 447.317 1130.58 443.591 1132.98 440.279C1135.37 436.967 1138.73 434.391 1143.05 432.551C1147.47 430.619 1152.57 429.653 1158.37 429.653Z" fill="#7788B4"/>
<path d="M1233.37 429.653C1238.25 429.653 1242.62 430.389 1246.48 431.861C1250.44 433.241 1254.16 435.449 1257.66 438.485L1249.1 450.077C1246.71 448.237 1244.37 446.903 1242.07 446.075C1239.86 445.247 1237.42 444.833 1234.75 444.833C1224.36 444.833 1219.16 452.837 1219.16 468.845C1219.16 476.941 1220.49 482.737 1223.16 486.233C1225.83 489.729 1229.65 491.477 1234.61 491.477C1237.19 491.477 1239.54 491.109 1241.65 490.373C1243.77 489.545 1246.25 488.211 1249.1 486.371L1257.66 498.653C1250.67 504.357 1242.66 507.209 1233.65 507.209C1226.47 507.209 1220.22 505.645 1214.88 502.517C1209.64 499.389 1205.59 494.973 1202.74 489.269C1199.88 483.473 1198.46 476.711 1198.46 468.983C1198.46 461.255 1199.88 454.447 1202.74 448.559C1205.59 442.579 1209.64 437.933 1214.88 434.621C1220.22 431.309 1226.38 429.653 1233.37 429.653Z" fill="#7788B4"/>
<path d="M1326.08 484.715C1326.08 487.567 1326.49 489.683 1327.32 491.063C1328.15 492.351 1329.53 493.317 1331.46 493.961L1327.32 506.933C1323 506.565 1319.45 505.553 1316.69 503.897C1314.03 502.241 1311.96 499.665 1310.48 496.169C1305.7 503.529 1298.39 507.209 1288.54 507.209C1281.27 507.209 1275.48 505.139 1271.15 500.999C1266.92 496.767 1264.81 491.293 1264.81 484.577C1264.81 476.573 1267.7 470.455 1273.5 466.223C1279.3 461.991 1287.62 459.875 1298.48 459.875H1306.9V456.287C1306.9 451.779 1305.88 448.651 1303.86 446.903C1301.84 445.155 1298.48 444.281 1293.79 444.281C1288.63 444.281 1282.19 445.569 1274.47 448.145L1270.05 435.035C1279.16 431.447 1288.17 429.653 1297.1 429.653C1307.03 429.653 1314.35 431.815 1319.04 436.139C1323.73 440.371 1326.08 446.719 1326.08 455.183V484.715ZM1293.92 493.133C1299.44 493.133 1303.77 490.419 1306.9 484.991V471.053H1300.41C1289.83 471.053 1284.54 475.009 1284.54 482.921C1284.54 486.141 1285.32 488.671 1286.89 490.511C1288.54 492.259 1290.89 493.133 1293.92 493.133Z" fill="#7788B4"/>
<path d="M1387.88 429.653C1397.08 429.653 1403.89 433.057 1408.31 439.865C1412.82 446.581 1415.07 456.057 1415.07 468.293C1415.07 475.745 1413.92 482.415 1411.62 488.303C1409.32 494.191 1405.96 498.837 1401.55 502.241C1397.22 505.553 1392.07 507.209 1386.09 507.209C1378.64 507.209 1372.61 504.587 1368.01 499.343V533.153L1348.42 535.361V431.861H1365.67L1366.63 440.417C1369.39 436.829 1372.61 434.161 1376.29 432.413C1380.06 430.573 1383.93 429.653 1387.88 429.653ZM1380.29 492.581C1389.86 492.581 1394.65 484.531 1394.65 468.431C1394.65 459.599 1393.59 453.343 1391.47 449.663C1389.36 445.983 1386.14 444.143 1381.81 444.143C1379.05 444.143 1376.48 445.017 1374.08 446.765C1371.78 448.421 1369.76 450.675 1368.01 453.527V485.405C1371.14 490.189 1375.23 492.581 1380.29 492.581Z" fill="#7788B4"/>
<path d="M1495.21 466.775C1495.21 467.695 1495.07 470.225 1494.79 474.365H1449.12C1449.76 480.989 1451.55 485.681 1454.5 488.441C1457.44 491.201 1461.44 492.581 1466.5 492.581C1469.63 492.581 1472.58 492.075 1475.34 491.063C1478.1 490.051 1481.09 488.441 1484.31 486.233L1492.45 497.273C1484.26 503.897 1475.01 507.209 1464.71 507.209C1453.21 507.209 1444.38 503.759 1438.21 496.859C1432.05 489.959 1428.97 480.621 1428.97 468.845C1428.97 461.393 1430.26 454.723 1432.83 448.835C1435.5 442.855 1439.32 438.163 1444.29 434.759C1449.35 431.355 1455.33 429.653 1462.23 429.653C1472.62 429.653 1480.72 432.919 1486.51 439.451C1492.31 445.983 1495.21 455.091 1495.21 466.775ZM1475.75 461.255C1475.75 449.111 1471.38 443.039 1462.64 443.039C1458.59 443.039 1455.42 444.557 1453.12 447.593C1450.91 450.537 1449.58 455.367 1449.12 462.083H1475.75V461.255Z" fill="#7788B4"/>
<path d="M474.202 274.72H541.155C544.821 274.72 547.021 270.545 544.877 267.555L486.385 183.993C485.426 182.582 485.99 180.72 487.513 179.987C501.22 173.442 512.162 164.471 520.172 152.904C529.31 139.645 533.878 123 533.878 103.026V97.1585C533.878 77.1849 529.366 60.4274 520.341 46.886C511.316 33.3445 498.4 23.1321 481.591 16.1921C464.782 9.2521 444.815 5.75391 421.688 5.75391H315.534C312.995 5.75391 310.965 7.78512 310.965 10.3241V270.15C310.965 272.689 312.995 274.72 315.534 274.72H374.364C376.903 274.72 378.933 272.689 378.933 270.15V197.421C378.933 194.882 380.964 192.851 383.502 192.851H415.145C416.668 192.851 418.135 193.641 418.981 194.882L470.366 272.633C471.212 273.93 472.622 274.664 474.202 274.664V274.72ZM378.99 67.3674C378.99 64.8283 381.02 62.7971 383.558 62.7971H425.75C433.759 62.7971 440.697 64.377 446.563 67.5366C452.429 70.6963 456.998 75.2101 460.27 81.078C463.541 86.946 465.177 93.886 465.177 101.898C465.177 109.91 463.541 116.511 460.27 122.379C456.998 128.247 452.429 132.761 446.563 135.921C440.697 139.08 433.759 140.66 425.75 140.66H383.558C381.02 140.66 378.99 138.629 378.99 136.09V67.3674Z" fill="#7788B4"/>
<path d="M795.26 7.89844C793.399 7.89844 791.706 9.08331 790.973 10.8324L735.696 144.554C735.075 146.077 732.932 146.077 732.312 144.554L676.752 10.8324C676.076 9.08331 674.383 7.89844 672.522 7.89844H585.94C583.402 7.89844 581.371 9.92965 581.371 12.4687V270.151C581.371 272.69 583.402 274.721 585.94 274.721H638.904C641.443 274.721 643.473 272.69 643.473 270.151V90.4447C643.473 87.3978 647.647 86.6079 648.775 89.4291L700.048 218.129C700.725 219.878 702.417 221.006 704.278 221.006H759.837C761.699 221.006 763.391 219.878 764.068 218.129L815.735 87.8492C816.863 85.0281 821.037 85.818 821.037 88.8648V270.151C821.037 272.69 823.068 274.721 825.606 274.721H883.703C886.242 274.721 888.272 272.69 888.272 270.151V12.4687C888.272 9.92965 886.242 7.89844 883.703 7.89844H795.26Z" fill="#7788B4"/>
<path d="M1073.06 282C1048.69 282 1027.54 277.825 1009.49 269.418C991.437 261.011 976.49 249.952 964.532 236.185C952.574 222.418 943.718 207.466 937.852 191.442C931.986 175.418 929.109 159.789 929.109 144.667V136.655C929.109 119.842 932.155 103.366 938.247 87.1164C944.339 70.9232 953.476 56.2533 965.66 43.1068C977.844 29.9604 992.904 19.4658 1010.78 11.6795C1028.72 3.89316 1049.48 0 1073.06 0C1096.63 0 1117.05 3.89316 1134.99 11.6795C1152.93 19.4658 1167.93 29.9604 1180.11 43.1068C1192.3 56.2533 1201.49 70.9232 1207.69 87.1164C1213.9 103.31 1217 119.842 1217 136.655V144.667C1217 159.789 1214.01 175.361 1208.03 191.442C1202.05 207.522 1193.14 222.418 1181.18 236.185C1169.23 249.952 1154.28 261.011 1136.23 269.418C1118.18 277.825 1097.14 282 1073.06 282ZM1073.06 218.412C1084.73 218.412 1095.22 216.493 1104.47 212.544C1113.72 208.651 1121.62 203.178 1128.22 196.125C1134.82 189.072 1139.78 180.834 1143.17 171.468C1146.55 162.102 1148.3 151.89 1148.3 140.944C1148.3 129.264 1146.55 118.657 1143 109.121C1139.44 99.5858 1134.42 91.461 1127.83 84.6339C1121.23 77.8067 1113.33 72.5594 1104.08 68.9484C1094.83 65.2809 1084.45 63.4754 1073 63.4754C1061.55 63.4754 1050.83 65.2809 1041.58 68.9484C1032.33 72.6158 1024.38 77.8631 1017.83 84.6339C1011.24 91.461 1006.27 99.5858 1002.83 109.121C999.39 118.6 997.698 129.208 997.698 140.944C997.698 151.89 999.39 162.102 1002.83 171.468C1006.22 180.834 1011.24 189.072 1017.83 196.125C1024.38 203.178 1032.33 208.651 1041.58 212.544C1050.83 216.437 1061.32 218.412 1073 218.412H1073.06Z" fill="#7788B4"/>
<path d="M189.354 7.89844H87.1474C85.1733 7.89844 83.4247 9.19616 82.8042 11.0581L0.22693 268.74C-0.73196 271.674 1.46785 274.721 4.57014 274.721H274.751C277.854 274.721 280.053 271.674 279.095 268.74L193.697 11.0581C193.077 9.19616 191.328 7.95486 189.354 7.95486V7.89844ZM85.004 213.22L129.903 65.9573C130.467 64.0389 132.272 62.7412 134.246 62.7412H141.184C143.158 62.7412 144.963 64.0389 145.527 65.9573L191.666 213.22C192.569 216.154 190.369 219.145 187.323 219.145H89.3472C86.3014 219.145 84.1016 216.154 85.004 213.22Z" fill="#7788B4"/>
<path d="M1567.5 514.712C1566.23 514.709 1564.99 514.374 1563.89 513.74C1562.79 513.106 1561.88 512.194 1561.24 511.097L1532.45 461.212C1531.81 460.113 1531.48 458.867 1531.48 457.598C1531.48 456.329 1531.81 455.083 1532.45 453.983L1561.24 404.091C1561.88 402.994 1562.79 402.083 1563.89 401.448C1564.99 400.814 1566.23 400.479 1567.5 400.477H1625.11C1626.38 400.477 1627.63 400.81 1628.73 401.445C1629.83 402.079 1630.75 402.992 1631.39 404.091L1660.18 453.976C1660.82 455.075 1661.15 456.322 1661.15 457.59C1661.15 458.859 1660.82 460.106 1660.18 461.205L1631.39 511.097C1630.75 512.194 1629.84 513.106 1628.74 513.74C1627.64 514.374 1626.4 514.709 1625.13 514.712H1567.5Z" fill="#2916FC"/>
<path d="M1625.11 401.97C1626.12 401.972 1627.11 402.238 1627.99 402.742C1628.86 403.247 1629.59 403.971 1630.09 404.844L1658.89 454.729C1659.39 455.603 1659.66 456.594 1659.66 457.603C1659.66 458.611 1659.39 459.602 1658.89 460.477L1630.09 510.361C1629.59 511.233 1628.86 511.957 1627.99 512.461C1627.11 512.965 1626.12 513.232 1625.11 513.235H1567.5C1566.5 513.233 1565.51 512.967 1564.64 512.462C1563.76 511.958 1563.04 511.233 1562.53 510.361L1533.73 460.477C1533.23 459.602 1532.96 458.611 1532.96 457.603C1532.96 456.594 1533.23 455.603 1533.73 454.729L1562.51 404.837C1563.01 403.963 1563.73 403.238 1564.61 402.734C1565.48 402.229 1566.47 401.963 1567.48 401.963H1625.09L1625.11 401.97ZM1625.09 399H1567.48C1565.95 399.005 1564.46 399.41 1563.14 400.174C1561.82 400.938 1560.73 402.035 1559.96 403.355L1531.17 453.24C1530.4 454.564 1530 456.066 1530 457.595C1530 459.124 1530.4 460.626 1531.17 461.95L1559.96 511.835C1560.73 513.159 1561.83 514.259 1563.15 515.024C1564.47 515.788 1565.98 516.191 1567.5 516.191H1625.11C1626.64 516.191 1628.15 515.788 1629.47 515.024C1630.79 514.259 1631.89 513.159 1632.66 511.835L1661.46 461.95C1662.22 460.626 1662.63 459.124 1662.63 457.595C1662.63 456.066 1662.22 454.564 1661.46 453.24L1632.66 403.355C1631.89 402.031 1630.79 400.931 1629.47 400.167C1628.15 399.402 1626.64 399 1625.11 399H1625.09Z" fill="white"/>
<path d="M1592.88 427.974V485.481C1592.88 486.267 1592.57 487.02 1592.01 487.576C1591.46 488.131 1590.71 488.444 1589.92 488.444H1578.93C1578.14 488.444 1577.39 488.131 1576.83 487.576C1576.28 487.02 1575.96 486.267 1575.96 485.481V427.974C1575.96 427.189 1576.28 426.435 1576.83 425.879C1577.39 425.324 1578.14 425.012 1578.93 425.012H1589.92C1590.71 425.012 1591.46 425.324 1592.01 425.879C1592.57 426.435 1592.88 427.189 1592.88 427.974ZM1623.43 429.619L1608.5 451.765C1608.19 452.227 1608.01 452.766 1608 453.322C1607.98 453.877 1608.12 454.426 1608.4 454.906L1625.55 483.985C1625.8 484.433 1625.94 484.941 1625.94 485.458C1625.94 485.975 1625.81 486.484 1625.55 486.933C1625.3 487.383 1624.93 487.757 1624.48 488.02C1624.04 488.282 1623.53 488.423 1623.01 488.429H1610.56C1610.04 488.431 1609.53 488.295 1609.07 488.035C1608.62 487.775 1608.25 487.4 1607.98 486.947L1590.95 456.239C1590.7 455.776 1590.57 455.254 1590.59 454.727C1590.6 454.2 1590.76 453.686 1591.04 453.239L1608.03 426.434C1608.3 426.016 1608.66 425.672 1609.1 425.433C1609.53 425.193 1610.02 425.066 1610.51 425.064H1620.97C1621.49 425.074 1622.01 425.225 1622.46 425.5C1622.9 425.775 1623.27 426.164 1623.52 426.628C1623.77 427.092 1623.89 427.613 1623.87 428.139C1623.85 428.665 1623.69 429.175 1623.41 429.619H1623.43Z" fill="white"/>
<path d="M1658.21 467.93L1636.38 505.735H1624.7L1614.03 487.247L1610.88 481.766L1616.28 472.397L1620.72 464.716L1624.7 457.812H1652.38L1658.21 467.93Z" fill="url(#paint0_linear_1045_6807)"/>
<path opacity="0.68" d="M1622.45 488.421H1611.97L1611.28 487.236L1608.12 481.762L1613.54 472.392L1615.82 468.43L1624.99 483.984C1625.25 484.432 1625.39 484.94 1625.39 485.457C1625.39 485.974 1625.25 486.482 1624.99 486.93C1624.74 487.379 1624.37 487.752 1623.92 488.014C1623.48 488.275 1622.97 488.416 1622.45 488.421V488.421Z" fill="white"/>
<path d="M1676.4 478.842C1676.19 478.186 1675.91 477.555 1675.57 476.961L1663.52 456.089L1662.17 453.763L1661.21 452.089C1660.79 451.358 1660.27 450.685 1659.67 450.089C1657.87 448.303 1655.44 447.3 1652.9 447.297H1624.18C1622.79 447.3 1621.42 447.602 1620.17 448.183C1618.91 448.763 1617.79 449.608 1616.89 450.66C1616.51 451.105 1616.17 451.583 1615.87 452.089L1610.16 461.992L1601.52 476.961C1601.49 477.009 1601.46 477.058 1601.44 477.109C1600.64 478.558 1600.23 480.188 1600.24 481.842C1600.26 483.496 1600.7 485.118 1601.52 486.553L1615.87 511.425C1616.65 512.764 1617.74 513.896 1619.05 514.725C1620.35 515.554 1621.84 516.056 1623.39 516.188C1623.64 516.188 1623.91 516.188 1624.18 516.188H1652.87C1653.19 516.189 1653.5 516.171 1653.81 516.136L1664.01 532.431C1664.6 533.353 1665.52 534.007 1666.58 534.251C1667.65 534.496 1668.77 534.31 1669.69 533.734L1670.31 533.349C1671.23 532.768 1671.89 531.844 1672.14 530.78C1672.38 529.716 1672.2 528.597 1671.63 527.668L1661.26 511.173L1675.5 486.509C1676.17 485.362 1676.6 484.089 1676.75 482.769C1676.9 481.45 1676.78 480.113 1676.4 478.842V478.842ZM1663.06 487.175L1652.35 505.692H1624.73L1624.66 505.574L1614.06 487.205L1610.9 481.724L1616.31 472.354L1620.76 464.673L1624.67 457.889H1652.48L1658.26 467.888L1666.2 481.753L1663.06 487.175Z" fill="#2916FC"/>
<path d="M1567.54 514.83C1566.27 514.828 1565.02 514.492 1563.92 513.858C1562.83 513.223 1561.91 512.31 1561.28 511.212L1532.45 461.276C1531.81 460.175 1531.48 458.927 1531.48 457.657C1531.48 456.387 1531.81 455.14 1532.45 454.039L1561.28 404.095C1561.91 402.997 1562.83 402.084 1563.92 401.449C1565.02 400.815 1566.27 400.479 1567.54 400.477H1625.21C1626.48 400.477 1627.73 400.811 1628.83 401.446C1629.94 402.081 1630.85 402.994 1631.49 404.095L1660.32 454.032C1660.95 455.132 1661.29 456.38 1661.29 457.65C1661.29 458.92 1660.95 460.167 1660.32 461.268L1631.49 511.212C1630.85 512.31 1629.94 513.223 1628.84 513.858C1627.74 514.492 1626.49 514.828 1625.23 514.83H1567.54Z" fill="#2916FC"/>
<path d="M1625.21 401.973C1626.22 401.975 1627.21 402.241 1628.09 402.746C1628.96 403.251 1629.69 403.976 1630.2 404.85L1659.02 454.787C1659.53 455.662 1659.79 456.654 1659.79 457.664C1659.79 458.673 1659.53 459.665 1659.02 460.54L1630.2 510.477C1629.69 511.35 1628.96 512.074 1628.09 512.579C1627.21 513.084 1626.22 513.351 1625.21 513.354H1567.54C1566.54 513.352 1565.54 513.085 1564.67 512.58C1563.8 512.075 1563.07 511.35 1562.57 510.477L1533.73 460.54C1533.23 459.665 1532.97 458.673 1532.97 457.664C1532.97 456.654 1533.23 455.662 1533.73 454.787L1562.54 404.843C1563.04 403.969 1563.77 403.243 1564.64 402.738C1565.51 402.233 1566.51 401.966 1567.51 401.966H1625.18L1625.21 401.973ZM1625.18 399H1567.51C1565.99 399.005 1564.49 399.41 1563.17 400.175C1561.85 400.94 1560.76 402.039 1560 403.36L1531.17 453.296C1530.4 454.622 1530 456.126 1530 457.656C1530 459.187 1530.4 460.69 1531.17 462.016L1560 511.953C1560.76 513.278 1561.86 514.379 1563.19 515.144C1564.51 515.91 1566.01 516.313 1567.54 516.312H1625.21C1626.74 516.313 1628.25 515.91 1629.57 515.144C1630.9 514.379 1632 513.278 1632.76 511.953L1661.6 462.016C1662.36 460.69 1662.76 459.187 1662.76 457.656C1662.76 456.126 1662.36 454.622 1661.6 453.296L1632.76 403.36C1632 402.034 1630.9 400.933 1629.57 400.168C1628.25 399.403 1626.74 399 1625.21 399H1625.18Z" fill="white"/>
<path d="M1592.94 428.005V485.571C1592.94 486.358 1592.63 487.112 1592.07 487.668C1591.52 488.224 1590.76 488.537 1589.98 488.537H1578.97C1578.19 488.537 1577.43 488.224 1576.88 487.668C1576.32 487.112 1576.01 486.358 1576.01 485.571V428.005C1576.01 427.218 1576.32 426.464 1576.88 425.908C1577.43 425.352 1578.19 425.039 1578.97 425.039H1589.98C1590.76 425.039 1591.52 425.352 1592.07 425.908C1592.63 426.464 1592.94 427.218 1592.94 428.005ZM1623.52 429.651L1608.57 451.82C1608.26 452.283 1608.09 452.822 1608.07 453.378C1608.06 453.934 1608.2 454.484 1608.48 454.964L1625.64 484.073C1625.9 484.522 1626.04 485.03 1626.04 485.548C1626.04 486.066 1625.91 486.575 1625.65 487.025C1625.39 487.475 1625.02 487.85 1624.58 488.113C1624.13 488.375 1623.62 488.516 1623.1 488.522H1610.64C1610.12 488.524 1609.6 488.388 1609.15 488.128C1608.7 487.867 1608.32 487.492 1608.06 487.039L1591.01 456.299C1590.75 455.836 1590.63 455.313 1590.64 454.785C1590.66 454.257 1590.82 453.743 1591.1 453.296L1608.11 426.463C1608.37 426.045 1608.74 425.7 1609.17 425.461C1609.61 425.221 1610.09 425.094 1610.59 425.091H1621.06C1621.58 425.102 1622.1 425.253 1622.55 425.528C1623 425.803 1623.36 426.193 1623.61 426.657C1623.86 427.121 1623.98 427.643 1623.96 428.17C1623.94 428.696 1623.78 429.207 1623.5 429.651H1623.52Z" fill="white"/>
<path d="M1658.34 467.999L1636.49 505.843H1624.8L1614.11 487.336L1610.95 481.85L1616.37 472.47L1620.81 464.781L1624.8 457.871H1652.5L1658.34 467.999Z" fill="url(#paint1_linear_1045_6807)"/>
<path opacity="0.68" d="M1622.55 488.523H1612.05L1611.37 487.337L1608.2 481.858L1613.62 472.479L1615.9 468.512L1625.09 484.082C1625.35 484.531 1625.48 485.039 1625.48 485.557C1625.48 486.074 1625.35 486.583 1625.09 487.032C1624.83 487.481 1624.46 487.855 1624.02 488.116C1623.57 488.378 1623.06 488.518 1622.55 488.523V488.523Z" fill="white"/>
<path d="M1676.54 478.938C1676.34 478.281 1676.06 477.649 1675.71 477.054L1663.66 456.16L1662.31 453.832L1661.34 452.157C1660.92 451.424 1660.4 450.751 1659.8 450.155C1658 448.367 1655.56 447.362 1653.02 447.359H1624.27C1622.88 447.363 1621.51 447.665 1620.25 448.246C1618.99 448.827 1617.88 449.673 1616.97 450.726C1616.59 451.171 1616.25 451.65 1615.96 452.157L1610.23 462.07L1601.59 477.054C1601.56 477.102 1601.53 477.152 1601.51 477.203C1600.71 478.653 1600.29 480.284 1600.31 481.94C1600.32 483.596 1600.76 485.22 1601.59 486.656L1615.96 511.554C1616.74 512.895 1617.82 514.028 1619.13 514.858C1620.44 515.688 1621.93 516.19 1623.48 516.322C1623.74 516.322 1624 516.322 1624.27 516.322H1652.99C1653.31 516.323 1653.62 516.305 1653.93 516.27L1664.14 532.582C1664.73 533.505 1665.65 534.16 1666.72 534.404C1667.78 534.649 1668.9 534.463 1669.83 533.887L1670.45 533.501C1671.37 532.919 1672.03 531.995 1672.28 530.929C1672.53 529.864 1672.34 528.744 1671.77 527.814L1661.39 511.302L1675.64 486.612C1676.32 485.464 1676.74 484.189 1676.9 482.869C1677.05 481.548 1676.93 480.21 1676.54 478.938V478.938ZM1663.2 487.279L1652.47 505.815H1624.82L1624.75 505.697L1614.14 487.309L1610.98 481.822L1616.4 472.443L1620.84 464.754L1624.77 457.962H1652.6L1658.38 467.972L1666.34 481.852L1663.2 487.279Z" fill="#7788B4"/>
<defs>
<linearGradient id="paint0_linear_1045_6807" x1="1610.88" y1="481.774" x2="1658.22" y2="481.774" gradientUnits="userSpaceOnUse">
<stop stop-color="#FF7879"/>
<stop offset="0.21" stop-color="#FC777B"/>
<stop offset="0.36" stop-color="#F27281"/>
<stop offset="0.5" stop-color="#E26B8A"/>
<stop offset="0.63" stop-color="#CB6098"/>
<stop offset="0.75" stop-color="#AE52AA"/>
<stop offset="0.86" stop-color="#8A41C0"/>
<stop offset="0.98" stop-color="#602EDA"/>
<stop offset="1" stop-color="#5529E0"/>
</linearGradient>
<linearGradient id="paint1_linear_1045_6807" x1="1610.95" y1="481.857" x2="1658.35" y2="481.857" gradientUnits="userSpaceOnUse">
<stop stop-color="#FF7879"/>
<stop offset="0.21" stop-color="#FC777B"/>
<stop offset="0.36" stop-color="#F27281"/>
<stop offset="0.5" stop-color="#E26B8A"/>
<stop offset="0.63" stop-color="#CB6098"/>
<stop offset="0.75" stop-color="#AE52AA"/>
<stop offset="0.86" stop-color="#8A41C0"/>
<stop offset="0.98" stop-color="#602EDA"/>
<stop offset="1" stop-color="#5529E0"/>
</linearGradient>
</defs>
</svg>
